Coordinates
version=1
nRows=6
nColumns=36
inDegrees=yes

Units are S.I. units (second, meters, Newtons, ...)
If the header above contains a line with 'inDegrees', this indicates whether rotational values are in degrees (yes) or radians (no).

endheader
time	pelvis_tilt	pelvis_list	pelvis_rotation	pelvis_tx	pelvis_ty	pelvis_tz	hip_flexion_r	hip_adduction_r	hip_rotation_r	knee_angle_r	knee_angle_r_beta	ankle_angle_r	subtalar_angle_r	mtp_angle_r	hip_flexion_l	hip_adduction_l	hip_rotation_l	knee_angle_l	knee_angle_l_beta	ankle_angle_l	subtalar_angle_l	mtp_angle_l	lumbar_extension	lumbar_bending	lumbar_rotation	arm_flex_r	arm_add_r	arm_rot_r	elbow_flex_r	pro_sup_r	arm_flex_l	arm_add_l	arm_rot_l	elbow_flex_l	pro_sup_l
      3.18333330	     -7.19674241	      2.40965899	     -7.04880710	      0.12047366	      0.78284656	     -0.04731380	     67.57985304	     -3.43411721	      4.75592817	     85.11938768	      1.48561357	     24.66506388	     -9.40300066	     -7.49999987	     64.93720540	     -6.07636143	      1.97028462	     84.17530320	      1.46913619	     21.36566158	    -12.91291199	     -7.49999987	    -51.97503968	      0.34919385	      2.68780853	     12.57140874	    -11.45810873	     -5.97038352	     38.66290112	     90.35432104	     13.84547814	    -16.58621267	     12.97103430	     42.18015017	     77.99838429
      3.20000000	     -7.17429749	      2.31316361	     -6.75798943	      0.12860230	      0.78221573	     -0.04773237	     67.08252928	     -3.62967213	      4.96158979	     85.25049839	      1.48790189	     24.74358165	     -9.56792141	     -7.49999987	     64.50451402	     -5.55426683	      2.14098732	     84.14699284	      1.46864208	     21.97505495	    -12.91814256	     -7.49999987	    -53.19174664	      0.46231972	      2.64214299	     13.52348909	    -11.30623805	     -6.49109066	     36.19146200	     90.69634727	     15.45057795	    -15.56354292	     15.13879029	     39.14931143	     78.09787729
      3.21666670	     -6.59972094	      2.16386079	     -6.72215418	      0.13238484	      0.78669094	     -0.05372297	     65.76565459	     -3.97297564	      5.10284877	     84.83559146	      1.48066039	     24.76996896	     -9.57579906	     -7.49999987	     63.21417877	     -4.84247172	      2.23244417	     83.84700832	      1.46340636	     22.39732097	    -13.40935557	     -7.49999987	    -54.90254354	      0.70038517	      2.58127308	     14.99656376	    -11.59707981	     -6.78912655	     34.28757924	     91.17384271	     17.24676720	    -14.23572395	     15.54728068	     36.06303059	     77.73604645
      3.23333330	     -5.39290027	      1.77853882	     -6.52685763	      0.15162152	      0.78565069	     -0.04230695	     63.24177162	     -3.93692284	      4.88888423	     84.98979537	      1.48335176	     25.87872101	     -9.54196800	     -7.49999987	     60.76683244	     -4.72492886	      2.79898365	     83.66126810	      1.46016458	     23.52087170	    -13.32947897	     -7.49999987	    -56.66636891	      0.63359404	      2.18773056	     15.98133153	    -11.00617235	     -7.05395440	     32.45058746	     91.57133409	     18.58907560	    -14.03488745	     15.12409380	     33.65158028	     77.56588838
      3.25000000	     -4.66206302	      1.46698501	     -6.09400345	      0.15787128	      0.79096405	     -0.04428125	     61.05022247	     -3.97002231	      4.57051161	     84.79888530	      1.48001975	     26.47595813	    -10.46948355	     -7.49999987	     58.96662808	     -4.41833304	      3.22347985	     83.54049140	      1.45805663	     24.32762175	    -13.04974732	     -7.49999987	    -57.65459707	      0.58032300	      1.99490895	     17.64773192	    -10.00526541	     -6.58880826	     30.53082656	     89.41291813	     20.57155638	    -13.43468571	     13.87200059	     31.66541044	     74.43051410
      3.26666670	     -4.43752193	      1.52472249	     -5.80423022	      0.16013676	      0.79381716	     -0.05962945	     59.88187797	     -4.66947294	      4.77604281	     84.43248261	      1.47362482	     26.89915369	    -10.39702598	     -7.49999987	     57.89769600	     -3.43477556	      3.21115628	     83.22337514	      1.45252191	     25.13893435	    -13.82892722	     -7.49999987	    -57.26433179	      0.86680273	      1.42974206	     19.53285202	    -11.05210956	     -6.74007253	     31.79748400	     89.18276255	     22.45234577	    -13.46149500	     12.93097999	     32.01636006	     74.07068062
